<?xml version="1.0" encoding="UTF-8"?>
<svg width="200px" height="200px" viewBox="0 0 200 200" version="1.1" xmlns="http://www.w3.org/2000/svg" xmlns:xlink="http://www.w3.org/1999/xlink">
    <title>画板</title>
    <g id="画板" stroke="none" stroke-width="1" fill="none" fill-rule="evenodd">
        <rect id="矩形" fill="#D3D6DA" x="-0.5" y="-0.5" width="201" height="201"></rect>
        <g id="编组" transform="translate(44.000000, 54.000000)" fill="#FFFFFF" fill-rule="nonzero">
            <path d="M97.6824682,0 L15.3175318,0 C6.87296768,0 0,6.89666828 0,15.3703525 L0,76.6296475 C0,85.1033317 6.87296768,92 15.3175318,92 L97.6824682,92 C106.127032,92 113,85.1033317 113,76.6296475 L113,15.3703525 C113,6.89666828 106.127032,0 97.6824682,0 Z M31.3433888,15.6924191 C38.968952,15.6924191 45.1778648,21.8561082 45.1778648,29.4302269 C45.1778648,37.0043457 38.968952,43.1680348 31.3433888,43.1680348 C23.7178257,43.1680348 17.5088981,37.0043457 17.5088981,29.4302269 C17.4978452,21.8561082 23.7067581,15.6924191 31.3433888,15.6924191 Z M104.666112,76.4519556 C104.666112,76.7295992 104.632909,77.0072429 104.577571,77.2737808 C104.500098,77.6513761 104.157003,78.9951714 103.194123,80.3722839 C101.688932,82.5379044 99.4200784,83.7262192 96.8081293,83.7262192 L90.3557297,83.7262192 L90.3446621,83.7262192 L22.5889324,83.6151618 C21.0173359,83.6151618 19.6117532,82.6600676 19.0141038,81.2052149 C18.4164545,79.7503621 18.7484819,78.0733945 19.8663075,76.9739256 L33.3023506,63.5581845 L33.3244858,63.535973 C35.5601371,61.3370352 38.5151812,59.948817 41.636239,59.6378561 C44.7572968,59.3268952 47.9226249,60.0931917 50.5456415,61.8034766 C52.9915769,63.3915983 56.2343781,63.0251086 58.2597453,60.9150169 L69.0617042,49.6760019 C74.3520078,44.1675519 83.1285994,44.0009657 88.6181195,49.3095123 L103.459745,63.4582327 C104.234476,64.191212 104.666112,65.2129406 104.666112,66.2790922 L104.666112,76.4519556 Z" id="形状"></path>
        </g>
    </g>
</svg>