<svg t="1656853398926" class="icon" viewBox="0 0 1024 1024" version="1.1" xmlns="http://www.w3.org/2000/svg" p-id="10919" width="200" height="200"><path d="M857.6 956.8H166.4c-54.4 0-102.4-48-102.4-105.6v-182.4c0-19.2 12.8-32 32-32s32 12.8 32 32v182.4c0 22.4 16 41.6 38.4 41.6h694.4c19.2 0 38.4-19.2 38.4-41.6v-182.4c0-19.2 12.8-32 32-32s32 12.8 32 32v182.4c-3.2 57.6-48 105.6-105.6 105.6z" fill="#333333" p-id="10920"></path><path d="M512 764.8c-19.2 0-32-12.8-32-32v-640c0-19.2 12.8-32 32-32s32 12.8 32 32v640c0 19.2-12.8 32-32 32z" fill="#333333" p-id="10921"></path><path d="M720 326.4c-9.6 0-16-3.2-22.4-9.6L512 131.2l-185.6 185.6c-12.8 12.8-32 12.8-44.8 0s-12.8-32 0-44.8L489.6 64c12.8-12.8 32-12.8 44.8 0l208 208c12.8 12.8 12.8 32 0 44.8-6.4 6.4-12.8 9.6-22.4 9.6z" fill="#333333" p-id="10922"></path></svg>
